<?xml version="1.0" encoding="UTF-8" standalone="no"?>
<!-- Created with Inkscape (http://www.inkscape.org/) -->

<svg
   width="1280"
   height="640"
   viewBox="0 0 338.66666 169.33333"
   version="1.1"
   id="svg1"
   xml:space="preserve"
   inkscape:version="1.3.2 (091e20e, 2023-11-25, custom)"
   sodipodi:docname="onedark-social-preview.svg"
   inkscape:export-filename="onedark-social-preview-1280x640.png"
   inkscape:export-xdpi="96"
   inkscape:export-ydpi="96"
   xmlns:inkscape="http://www.inkscape.org/namespaces/inkscape"
   xmlns:sodipodi="http://sodipodi.sourceforge.net/DTD/sodipodi-0.dtd"
   xmlns:xlink="http://www.w3.org/1999/xlink"
   xmlns="http://www.w3.org/2000/svg"
   xmlns:svg="http://www.w3.org/2000/svg"><sodipodi:namedview
     id="namedview1"
     pagecolor="#ffffff"
     bordercolor="#666666"
     borderopacity="1.0"
     inkscape:showpageshadow="2"
     inkscape:pageopacity="0.0"
     inkscape:pagecheckerboard="0"
     inkscape:deskcolor="#d1d1d1"
     inkscape:document-units="mm"
     inkscape:zoom="0.58888202"
     inkscape:cx="743.78226"
     inkscape:cy="355.75886"
     inkscape:window-width="1920"
     inkscape:window-height="1017"
     inkscape:window-x="-8"
     inkscape:window-y="472"
     inkscape:window-maximized="1"
     inkscape:current-layer="layer1" /><defs
     id="defs1"><linearGradient
       id="linearGradient1"><stop
         style="stop-color:#7d475d;stop-opacity:1;"
         offset="0"
         id="stop3" /><stop
         style="stop-color:#1c2742;stop-opacity:1;"
         offset="1"
         id="stop4" /></linearGradient><linearGradient
       inkscape:collect="always"
       xlink:href="#linearGradient1"
       id="linearGradient2"
       x1="0"
       y1="84.666664"
       x2="338.66666"
       y2="84.666664"
       gradientUnits="userSpaceOnUse" /><inkscape:path-effect
       effect="fillet_chamfer"
       id="path-effect4"
       is_visible="true"
       lpeversion="1"
       nodesatellites_param="F,0,0,1,0,60,0,1 @ F,0,0,1,0,60,0,1 @ F,0,0,1,0,60,0,1 @ F,0,0,1,0,60,0,1"
       radius="60"
       unit="px"
       method="auto"
       mode="F"
       chamfer_steps="1"
       flexible="false"
       use_knot_distance="true"
       apply_no_radius="true"
       apply_with_radius="true"
       only_selected="false"
       hide_knots="false" /><pattern
       patternUnits="userSpaceOnUse"
       width="1077.7375"
       height="211.66689"
       patternTransform="translate(-1177.9767,1117.0597)"
       preserveAspectRatio="xMidYMid"
       id="pattern36"
       style="fill:#000000"
       inkscape:label="pattern36"><g
         id="g36"
         transform="translate(1172.9877,-1118.307)"><rect
           style="fill:#273349;fill-opacity:1;stroke:none;stroke-width:6;stroke-linecap:round;stroke-linejoin:round"
           id="rect27"
           width="1077.7375"
           height="42.333389"
           x="-1172.9877"
           y="1118.307" /><rect
           style="fill:#324159;fill-opacity:1;stroke:none;stroke-width:6;stroke-linecap:round;stroke-linejoin:round"
           id="rect28"
           width="1077.7375"
           height="42.333389"
           x="-1172.9877"
           y="1160.6404" /><rect
           style="fill:#3d516a;fill-opacity:1;stroke:none;stroke-width:6;stroke-linecap:round;stroke-linejoin:round"
           id="rect29"
           width="1077.7375"
           height="42.333389"
           x="-1172.9877"
           y="1202.9738" /><rect
           style="fill:#455a75;fill-opacity:1;stroke:none;stroke-width:6;stroke-linecap:round;stroke-linejoin:round"
           id="rect30"
           width="1077.7375"
           height="42.333389"
           x="-1172.9877"
           y="1245.3071" /><rect
           style="fill:#4a617f;fill-opacity:1;stroke:none;stroke-width:6;stroke-linecap:round;stroke-linejoin:round"
           id="rect31"
           width="1077.7375"
           height="42.333389"
           x="-1172.9877"
           y="1287.6405" /></g></pattern></defs><g
     inkscape:label="Layer 1"
     inkscape:groupmode="layer"
     id="layer1"><rect
       style="mix-blend-mode:normal;fill:url(#linearGradient2);stroke:none;stroke-width:3.96875;stroke-linecap:round;stroke-linejoin:round;paint-order:stroke fill markers"
       id="rect1"
       width="338.66666"
       height="169.33333"
       x="0"
       y="0" /><path
       d="m 76.222954,15.295013 c 11.093329,-0.18374 22.085935,3.562297 30.907586,10.253687 0.10977,0.08272 0.21954,0.165449 0.33264,0.25068 1.61109,1.220184 3.13689,2.514738 4.59292,3.9171 0.18736,0.179629 0.18736,0.179629 0.37851,0.362887 1.79774,1.732591 3.45584,3.491478 4.92593,5.509894 0.0915,0.122957 0.18291,0.245916 0.27714,0.372599 1.48066,1.993857 2.75221,4.051592 3.89064,6.25796 0.0786,0.150279 0.15721,0.300556 0.2382,0.455389 2.09337,4.041081 3.43709,8.347338 4.30847,12.80573 0.0442,0.221006 0.0884,0.442012 0.13395,0.669716 1.76434,9.634087 0.0687,20.497296 -5.48224,28.639335 -3.47556,4.976184 -8.41905,9.114287 -13.97505,11.610971 -0.18755,0 -0.3751,0 -0.56834,0 0.068,0.122133 0.13609,0.244266 0.20619,0.370101 1.9924,3.609978 4.14266,7.521668 5.09826,11.564908 0.53272,0.0914 1.06554,0.18204 1.59844,0.27232 0.14835,0.0255 0.29671,0.051 0.44956,0.0773 1.02011,0.17211 2.03789,0.30201 3.067,0.40812 0.0393,-0.16387 0.0786,-0.32773 0.11915,-0.49655 0.80045,-3.27217 1.74375,-6.506 2.67179,-9.743773 0.70161,-2.450442 1.38367,-4.906436 2.06802,-7.361743 0.47677,-1.708663 0.95562,-3.416642 1.44526,-5.121664 0.80217,-2.793638 1.59568,-5.589074 2.36287,-8.392541 0.99155,-3.622282 1.99633,-7.240853 3.00334,-10.858859 0.18122,-0.651076 0.36232,-1.302183 0.54331,-1.953323 0.55645,-2.001637 1.11504,-4.002662 1.67605,-6.003026 0.13184,-0.470497 0.26335,-0.941085 0.39481,-1.411686 0.21615,-0.773277 0.43357,-1.546188 0.65189,-2.318853 0.0814,-0.288732 0.16242,-0.577574 0.24302,-0.866532 0.11117,-0.398256 0.22379,-0.796075 0.33677,-1.193821 0.0632,-0.224581 0.12641,-0.449162 0.19152,-0.680547 0.31768,-0.958094 0.65209,-1.745713 1.44878,-2.384098 0.11355,-0.09304 0.22711,-0.186085 0.3441,-0.281946 0.87131,-0.644559 1.91971,-0.490033 2.95934,-0.41663 1.13919,0.264493 2.09119,1.00747 2.77369,1.94069 0.99842,2.024964 -0.0262,4.680022 -0.66242,6.677557 -0.0958,0.310916 -0.19119,0.621945 -0.28627,0.933075 -0.24935,0.81271 -0.50338,1.623883 -0.75852,2.434793 -0.25625,0.817099 -0.50825,1.635507 -0.76049,2.453852 -0.28546,0.925465 -0.57127,1.8508 -0.86046,2.775107 -0.51982,1.662132 -1.02388,3.327946 -1.51201,4.999663 -0.24111,0.825304 -0.48718,1.64902 -0.73523,2.472256 -0.0965,0.321161 -0.19304,0.642328 -0.28953,0.963503 -0.051,0.169661 -0.10197,0.339324 -0.15451,0.514126 -0.51581,1.717883 -1.02936,3.436443 -1.54272,5.155057 -0.13796,0.461624 -0.27603,0.923209 -0.41423,1.384758 -0.82254,2.747363 -1.62975,5.498291 -2.41379,8.256896 -0.46596,1.637233 -0.94793,3.268865 -1.44264,4.897604 -1.17073,3.856714 -2.29388,7.727105 -3.41239,11.599235 -0.0637,0.21997 -0.12737,0.43993 -0.19298,0.66657 -0.12049,0.41622 -0.24068,0.83253 -0.36052,1.24895 -0.0534,0.18439 -0.10683,0.36879 -0.16187,0.55878 -0.0466,0.1614 -0.0931,0.3228 -0.14112,0.48909 -0.12256,0.39014 -0.12256,0.39014 -0.312,0.76903 -0.14934,0.85335 0.0732,1.31129 0.52097,2.01285 1.54472,2.47814 1.69193,5.11864 1.27061,7.96481 -0.12672,0.54118 -0.28066,1.05456 -0.46547,1.57845 -0.0483,0.15532 -0.0967,0.31064 -0.14652,0.47066 -0.98946,2.85035 -3.04503,4.95407 -5.67224,6.34343 -0.43291,0.19536 -0.43291,0.19536 -0.8118,0.19536 -0.0612,0.25424 -0.0612,0.25424 -0.12372,0.51362 -0.55417,2.27206 -1.18901,4.5193 -1.82993,6.76816 -0.16664,0.58665 -0.33314,1.17334 -0.49963,1.76004 -0.10866,0.38286 -0.21738,0.7657 -0.32615,1.14852 -0.33664,1.18511 -0.67041,2.37095 -1.00049,3.5579 -0.19817,0.71236 -0.39834,1.42416 -0.59886,2.13587 -0.1256,0.44706 -0.25055,0.89428 -0.375,1.34166 -0.18753,0.6735 -0.3773,1.34634 -0.56831,2.01886 -0.074,0.2619 -0.14735,0.524 -0.21993,0.78631 -0.1012,0.36531 -0.2052,0.72985 -0.3093,1.09435 -0.059,0.20994 -0.11804,0.41988 -0.17885,0.63618 -0.3073,0.82269 -0.71872,1.49279 -1.37001,2.08487 -1.00267,0.384 -2.07551,0.43269 -3.08587,0.04 -0.83381,-0.48405 -1.42442,-1.01984 -1.82784,-1.91073 -0.29014,-1.6078 0.30211,-3.21046 0.75777,-4.73611 -0.0794,0.0713 -0.15876,0.14267 -0.24055,0.21617 -0.79009,0.69558 -1.59865,1.29278 -2.49455,1.84404 -0.13105,0.0809 -0.2621,0.16181 -0.39711,0.24517 -3.22977,1.96279 -6.793933,3.56354 -10.507794,4.32518 -0.204263,0.0425 -0.204263,0.0425 -0.412652,0.0858 -6.555236,1.28583 -14.447631,0.85903 -20.771837,-1.26987 -1.356556,-0.32037 -2.620537,0.17582 -3.905074,0.59201 -1.723561,0.53751 -3.430492,0.92404 -5.221565,1.16035 -0.125842,0.018 -0.251685,0.036 -0.381341,0.0545 -1.585031,0.19495 -3.182463,0.17016 -4.776816,0.17002 -0.506248,3.8e-4 -1.012418,0.004 -1.518653,0.007 -3.061417,0.0104 -6.056997,-0.22085 -9.047088,-0.90689 -0.213574,-0.0485 -0.427146,-0.097 -0.647192,-0.14703 -3.781106,-0.89375 -7.427605,-2.19173 -10.908925,-3.91419 -0.169572,-0.0836 -0.339142,-0.16722 -0.51385,-0.25336 -4.38394,-2.18165 -4.38394,-2.18165 -5.927265,-3.72497 0.03262,-0.57098 0.105845,-0.85923 0.502934,-1.27718 0.133427,-0.0977 0.266857,-0.19542 0.404327,-0.2961 0.147256,-0.11062 0.294513,-0.22125 0.446231,-0.33523 0.15507,-0.11258 0.310142,-0.22515 0.469912,-0.34115 7.391673,-5.45091 10.25656,-14.2752 12.046688,-22.89797 1.780752,-8.57393 4.201977,-16.67002 9.242143,-23.91851 -0.693424,-0.572749 -1.464766,-0.944801 -2.261494,-1.349792 -6.74311,-3.506128 -11.869143,-9.380612 -14.177538,-16.649706 -1.800517,-6.07186 -1.367439,-12.196544 -0.421533,-18.373855 -0.179057,0.666621 -0.356262,1.33372 -0.532813,2.001008 -0.05261,0.197882 -0.105223,0.395767 -0.159429,0.599645 -0.352283,1.345229 -0.634938,2.680265 -0.835895,4.055807 -0.279054,0.855846 -0.836909,1.148926 -1.607318,1.554777 -3.350575,1.402786 -7.912957,2.647607 -11.510977,1.604359 -0.7026,-0.296835 -1.112306,-0.587534 -1.456355,-1.290591 -0.27146,-1.663706 0.370882,-3.127169 0.970904,-4.641392 0.103472,-0.267007 0.206778,-0.534076 0.309927,-0.801208 0.271775,-0.700295 0.548289,-1.398614 0.826405,-2.096413 0.161799,-0.406845 0.322194,-0.814217 0.482178,-1.221781 2.088872,-5.310128 4.372465,-10.667067 7.451148,-15.488109 0.137802,-0.221659 0.275444,-0.443417 0.41293,-0.665276 2.265031,-3.621324 4.841634,-6.990307 7.733185,-10.133063 0.288269,-0.323496 0.57638,-0.647131 0.864341,-0.970903 1.21476,-1.347624 2.49241,-2.587936 3.871773,-3.765211 0.172652,-0.151652 0.345306,-0.303304 0.523193,-0.459551 3.664649,-3.195215 7.76324,-5.824901 12.169592,-7.876009 0.199271,-0.09402 0.398544,-0.188039 0.603854,-0.284908 6.673346,-3.001366 13.696885,-4.239013 20.964703,-4.474885 z"
       fill="#1e2338"
       id="path2"
       style="stroke-width:0.189445;fill:#31353f;fill-opacity:1" /><path
       d="m 94.058863,35.96815 c 0.125125,0.03953 0.250251,0.07906 0.379166,0.11979 5.708701,1.858543 10.978521,5.069278 15.344731,9.162993 0.14181,0.132145 0.14181,0.132145 0.28648,0.266961 4.19244,3.938079 7.05746,8.927294 8.42797,14.509714 0.0313,0.123141 0.0626,0.246282 0.0948,0.373154 1.45004,5.971118 0.80956,13.506148 -2.30673,18.847327 -1.19932,1.908938 -2.80649,3.40551 -4.79754,4.460088 -0.11307,0.06194 -0.22613,0.123874 -0.34263,0.187686 -0.90648,0.479732 -1.78213,0.780576 -2.7832,0.996342 -0.14552,0.03217 -0.29104,0.06435 -0.44096,0.0975 -1.46765,0.298881 -2.89948,0.307129 -4.38988,0.23403 -0.0278,0.254218 -0.0278,0.254218 -0.0562,0.513573 -0.43483,3.516136 -0.43483,3.516136 -1.7198,4.696152 -1.20794,0.902135 -2.437055,0.988757 -3.907296,0.852501 -1.228968,-0.394199 -1.944862,-1.303025 -2.555281,-2.402099 -0.230664,-0.458726 -0.45275,-0.919423 -0.665276,-1.386792 -0.05959,0.150919 -0.119172,0.301838 -0.180564,0.45733 -0.712254,1.763471 -1.280753,3.037454 -3.039993,3.899894 -1.164886,0.353064 -2.136183,0.308005 -3.244238,-0.177604 -1.626156,-0.8879 -2.2241,-2.506255 -2.817988,-4.17962 -0.04152,0.105496 -0.08303,0.210993 -0.125803,0.319687 -0.639629,1.539271 -1.432147,2.915563 -2.962291,3.689728 -1.558305,0.482603 -3.408371,0.312771 -4.866357,-0.388509 -1.317564,-0.729138 -1.808089,-1.638235 -2.275555,-3.052573 -0.174137,-0.880557 -0.291536,-1.759131 -0.378889,-2.652223 -0.110107,0.01313 -0.220212,0.02625 -0.333655,0.03977 -4.779211,0.528621 -9.651503,0.386346 -13.59866,-2.682379 C 57.327981,79.86993 55.723915,75.551627 55.288613,71.130092 55.08761,68.734016 55.150464,66.37072 55.60164,64.00594 c 0.02241,-0.125522 0.04481,-0.251044 0.0679,-0.380368 1.512361,-8.342996 6.815181,-15.333574 13.572111,-20.269088 0.21806,-0.162554 0.436119,-0.325113 0.654175,-0.487671 6.788541,-5.004642 15.680763,-9.598004 24.163061,-6.900666 z"
       fill="#374562"
       id="path4"
       style="stroke-width:0.189445;fill:#848b98;fill-opacity:1" /><path
       d="m 139.90444,55.291494 c 3.89059,2.439339 7.39176,5.684801 10.23001,9.282783 0.14115,0.178027 0.2823,0.356052 0.42773,0.539474 4.71321,6.100891 7.0587,13.5461 7.01981,21.222969 -5.3e-4,0.153118 -10e-4,0.306237 -0.002,0.463997 -0.0196,3.751705 -0.40856,7.280255 -1.36002,10.914516 -0.062,0.236986 -0.12405,0.473973 -0.18796,0.718141 -0.37849,1.36691 -0.84686,2.602096 -1.54073,3.840366 -0.0625,0 -0.12503,0 -0.18944,0 -0.0327,-0.18022 -0.0654,-0.36045 -0.0992,-0.54613 -0.8316,-4.253394 -2.32908,-8.460302 -4.25806,-12.336097 -0.0629,-0.127903 -0.12583,-0.255805 -0.19065,-0.387584 -2.23194,-4.494959 -5.45525,-8.754303 -9.45919,-11.807909 -0.13829,-0.10571 -0.27659,-0.211422 -0.41908,-0.320335 -1.70942,-1.278715 -3.55542,-2.263277 -5.46554,-3.20807 0.14277,-1.059449 0.4387,-2.057816 0.7415,-3.079953 0.0577,-0.19616 0.11538,-0.392321 0.17481,-0.594426 0.7498,-2.536604 1.5284,-5.064537 2.30767,-7.592206 0.21766,-0.706024 0.43471,-1.412239 0.65159,-2.118504 0.16877,-0.549372 0.33786,-1.098647 0.50705,-1.647893 0.0803,-0.260861 0.16053,-0.521753 0.24065,-0.782676 0.11064,-0.36021 0.22177,-0.720276 0.33291,-1.080335 0.0629,-0.2042 0.12578,-0.4084 0.19057,-0.618788 0.1577,-0.482451 0.1577,-0.482451 0.34714,-0.86134 z"
       fill="#5c708c"
       id="path9"
       style="stroke-width:0.189445;fill:#848b98;fill-opacity:1" /><path
       d="m 80.111749,58.457291 c 2.395498,1.974722 3.99337,5.00884 4.427526,8.075074 0.225581,2.403835 -0.0439,4.762622 -1.529617,6.753402 -0.104763,0.126009 -0.209528,0.25202 -0.317468,0.381848 -0.106718,0.129918 -0.213436,0.259835 -0.323387,0.393691 -1.631252,1.79953 -4.004426,2.910391 -6.422244,3.043508 -3.434787,0.116491 -6.867634,-0.04831 -9.5466,-2.489976 -2.088475,-2.183405 -2.2046,-4.634944 -2.155671,-7.513399 0.132884,-3.208755 1.648928,-6.106148 3.860672,-8.399943 3.64095,-3.085646 8.203763,-2.979387 12.006789,-0.244205 z"
       fill="#20253b"
       id="path11"
       style="stroke-width:0.189445;fill:#282c34;fill-opacity:1" /><path
       d="m 109.38093,57.993299 c 2.3417,1.919074 3.48076,4.569221 3.81183,7.528201 0.24357,2.831451 -0.0421,6.053447 -1.89444,8.33556 -1.7128,1.90854 -4.20993,2.665871 -6.7016,2.902349 -2.90636,0.09908 -5.594027,-0.676609 -7.75539,-2.665543 -1.730847,-1.832251 -2.131833,-4.034535 -2.072789,-6.467755 0.146488,-3.153539 1.714225,-6.575906 4.026436,-8.73517 3.229113,-2.669659 6.990593,-3.480408 10.585953,-0.897642 z"
       fill="#20253b"
       id="path12"
       style="stroke-width:0.189445;fill:#282c34;fill-opacity:1" /><path
       d="m 97.65831,98.863741 c 1.623066,1.650579 1.586598,4.308789 1.586598,6.476639 -0.02859,2.51443 -0.0697,5.50961 -1.433415,7.71838 -0.577628,0.34184 -1.035328,0.16118 -1.66874,0.0133 -2.02013,-0.78822 -4.501479,-2.10491 -5.970324,-3.72691 -0.09284,-0.083 -0.185688,-0.16594 -0.281346,-0.25143 -0.444219,0.0453 -0.88624,0.11265 -1.326112,0.18945 -1.743098,0.0757 -1.743098,0.0757 -2.273334,-0.18945 -0.04591,0.11039 -0.09182,0.22077 -0.139123,0.33449 -0.930656,1.64301 -3.162551,2.59481 -4.786436,3.45441 -0.189014,0.10085 -0.378031,0.20171 -0.572774,0.30562 -0.924311,0.45957 -1.799884,0.8386 -2.849068,0.7674 -0.617648,-0.21169 -0.835945,-0.606 -1.126306,-1.17071 -0.861422,-2.15694 -0.983716,-4.24803 -0.993105,-6.54471 -0.0039,-0.23383 -0.0078,-0.46766 -0.01184,-0.70857 -0.0082,-1.96949 0.01152,-4.35909 1.385313,-5.910153 0.802665,-0.401333 1.792007,-0.0951 2.608563,0.170943 2.15826,0.8581 4.166092,1.97479 5.881662,3.54765 0.398176,0.31003 0.398176,0.31003 0.873961,0.2072 0.160686,-0.0452 0.321373,-0.0904 0.486931,-0.1369 0.350942,-0.0169 0.702436,-0.0247 1.053785,-0.0237 0.264109,-7.6e-4 0.264109,-7.6e-4 0.533554,-0.002 0.447576,0.0227 0.826243,0.0877 1.254329,0.2146 0.03785,-0.10452 0.0757,-0.20904 0.114703,-0.31672 0.370747,-0.61895 0.895525,-1.00332 1.460055,-1.43564 0.175804,-0.13624 0.175804,-0.13624 0.355163,-0.27524 3.880211,-2.957595 3.880211,-2.957595 5.837306,-2.708509 z"
       fill="#d66165"
       id="path13"
       style="stroke-width:0.189445;fill:#e86671;fill-opacity:1" /><path
       d="m 90.080528,71.962615 c 0.452384,0.07056 0.700499,0.131692 1.027145,0.46103 0.672278,1.014352 1.200921,2.082047 1.70796,3.185777 0.06942,0.147852 0.138831,0.295702 0.21035,0.448035 0.275941,0.621268 0.465784,1.077482 0.459367,1.763139 -0.239265,0.511199 -0.419889,0.571668 -0.942043,0.772578 -0.511769,0.04602 -0.511769,0.04602 -1.090047,0.04366 -0.208673,-3.79e-4 -0.417346,-7.58e-4 -0.632345,-0.0011 -0.325464,-0.0035 -0.325464,-0.0035 -0.657505,-0.007 -0.21771,-1.23e-4 -0.43542,-1.89e-4 -0.659726,-3.79e-4 -1.616608,-0.0085 -1.616608,-0.0085 -2.264825,-0.224586 0.08101,-1.34608 0.398446,-2.337358 0.994584,-3.540245 0.07253,-0.15446 0.145058,-0.30892 0.219786,-0.468061 0.447245,-0.925156 0.935074,-1.67308 1.627299,-2.432809 z"
       fill="#1d2237"
       id="path15"
       style="stroke-width:0.189445;fill:#282c34;fill-opacity:1" /><text
       xml:space="preserve"
       style="font-size:38.4354px;line-height:0.85;font-family:Aquire;-inkscape-font-specification:Aquire;stroke-width:0.221742"
       x="159.41624"
       y="81.252304"
       id="text4"
       inkscape:export-filename="onedark-social-preview-1280x640.png"
       inkscape:export-xdpi="96"
       inkscape:export-ydpi="96"><tspan
         sodipodi:role="line"
         style="font-style:normal;font-variant:normal;font-weight:normal;font-stretch:normal;font-size:38.4354px;line-height:0.85;font-family:sans-serif;-inkscape-font-specification:sans-serif;fill:#ffffff;stroke-width:0.221742"
         x="159.41624"
         y="81.252304"
         id="tspan5"><tspan
           id="tspan6"
           style="font-style:normal;font-variant:normal;font-weight:bold;font-stretch:normal;font-size:38.4354px;line-height:0.85;font-family:sans-serif;-inkscape-font-specification:sans-serif;fill:#ffffff;stroke-width:0.221742">onedark</tspan></tspan><tspan
         sodipodi:role="line"
         style="font-style:normal;font-variant:normal;font-weight:normal;font-stretch:normal;font-size:38.4354px;line-height:0.85;font-family:sans-serif;-inkscape-font-specification:sans-serif;fill:#ffffff;stroke-width:0.221742"
         x="159.41624"
         y="116.90759"
         id="tspan7">theme</tspan></text></g></svg>
