<?xml version="1.0" encoding="UTF-8" standalone="no"?>
<!-- Created with Inkscape (http://www.inkscape.org/) -->

<svg
   width="1280"
   height="640"
   viewBox="0 0 338.66666 169.33333"
   version="1.1"
   id="svg1"
   xml:space="preserve"
   inkscape:version="1.3.2 (091e20e, 2023-11-25, custom)"
   sodipodi:docname="onedark-social-preview.svg"
   inkscape:export-filename="onedark-social-preview-1280x640.png"
   inkscape:export-xdpi="96"
   inkscape:export-ydpi="96"
   xmlns:inkscape="http://www.inkscape.org/namespaces/inkscape"
   xmlns:sodipodi="http://sodipodi.sourceforge.net/DTD/sodipodi-0.dtd"
   xmlns:xlink="http://www.w3.org/1999/xlink"
   xmlns="http://www.w3.org/2000/svg"
   xmlns:svg="http://www.w3.org/2000/svg"><sodipodi:namedview
     id="namedview1"
     pagecolor="#ffffff"
     bordercolor="#666666"
     borderopacity="1.0"
     inkscape:showpageshadow="2"
     inkscape:pageopacity="0.0"
     inkscape:pagecheckerboard="0"
     inkscape:deskcolor="#d1d1d1"
     inkscape:document-units="mm"
     inkscape:zoom="0.52656276"
     inkscape:cx="750.148"
     inkscape:cy="378.87222"
     inkscape:window-width="1920"
     inkscape:window-height="1017"
     inkscape:window-x="-8"
     inkscape:window-y="472"
     inkscape:window-maximized="1"
     inkscape:current-layer="layer1" /><defs
     id="defs1"><linearGradient
       id="linearGradient1"><stop
         style="stop-color:#7d475d;stop-opacity:1;"
         offset="0"
         id="stop3" /><stop
         style="stop-color:#1c2742;stop-opacity:1;"
         offset="1"
         id="stop4" /></linearGradient><linearGradient
       inkscape:collect="always"
       xlink:href="#linearGradient1"
       id="linearGradient2"
       x1="0"
       y1="84.666664"
       x2="338.66666"
       y2="84.666664"
       gradientUnits="userSpaceOnUse" /><inkscape:path-effect
       effect="fillet_chamfer"
       id="path-effect4"
       is_visible="true"
       lpeversion="1"
       nodesatellites_param="F,0,0,1,0,60,0,1 @ F,0,0,1,0,60,0,1 @ F,0,0,1,0,60,0,1 @ F,0,0,1,0,60,0,1"
       radius="60"
       unit="px"
       method="auto"
       mode="F"
       chamfer_steps="1"
       flexible="false"
       use_knot_distance="true"
       apply_no_radius="true"
       apply_with_radius="true"
       only_selected="false"
       hide_knots="false" /><pattern
       patternUnits="userSpaceOnUse"
       width="1077.7375"
       height="211.66689"
       patternTransform="translate(-1177.9767,1117.0597)"
       preserveAspectRatio="xMidYMid"
       id="pattern36"
       style="fill:#000000"
       inkscape:label="pattern36"><g
         id="g36"
         transform="translate(1172.9877,-1118.307)"><rect
           style="fill:#273349;fill-opacity:1;stroke:none;stroke-width:6;stroke-linecap:round;stroke-linejoin:round"
           id="rect27"
           width="1077.7375"
           height="42.333389"
           x="-1172.9877"
           y="1118.307" /><rect
           style="fill:#324159;fill-opacity:1;stroke:none;stroke-width:6;stroke-linecap:round;stroke-linejoin:round"
           id="rect28"
           width="1077.7375"
           height="42.333389"
           x="-1172.9877"
           y="1160.6404" /><rect
           style="fill:#3d516a;fill-opacity:1;stroke:none;stroke-width:6;stroke-linecap:round;stroke-linejoin:round"
           id="rect29"
           width="1077.7375"
           height="42.333389"
           x="-1172.9877"
           y="1202.9738" /><rect
           style="fill:#455a75;fill-opacity:1;stroke:none;stroke-width:6;stroke-linecap:round;stroke-linejoin:round"
           id="rect30"
           width="1077.7375"
           height="42.333389"
           x="-1172.9877"
           y="1245.3071" /><rect
           style="fill:#4a617f;fill-opacity:1;stroke:none;stroke-width:6;stroke-linecap:round;stroke-linejoin:round"
           id="rect31"
           width="1077.7375"
           height="42.333389"
           x="-1172.9877"
           y="1287.6405" /></g></pattern></defs><g
     inkscape:label="Layer 1"
     inkscape:groupmode="layer"
     id="layer1"><rect
       style="mix-blend-mode:normal;fill:url(#linearGradient2);stroke:none;stroke-width:3.96875;stroke-linecap:round;stroke-linejoin:round;paint-order:stroke fill markers"
       id="rect1"
       width="338.66666"
       height="169.33333"
       x="0"
       y="0" /><g
       id="g7"
       transform="translate(-9.0308545)"><g
         id="g25"
         transform="matrix(0.18944455,0,0,0.18944455,181.30932,-22.725551)"
         style="display:inline"
         inkscape:export-filename="onedark-logo-1544x1544.png"
         inkscape:export-xdpi="161.03"
         inkscape:export-ydpi="161.03"><path
           d="m -507.03763,200.69495 c 58.55713,-0.96989 116.58258,18.8039 163.14844,54.125 0.57943,0.43667 1.15886,0.87334 1.75586,1.32324 8.50433,6.44085 16.55838,13.27427 24.24414,20.67676 0.98903,0.94819 0.98903,0.94819 1.99804,1.91553 9.4895,9.14564 18.24192,18.43008 26.00196,29.08447 0.48275,0.64904 0.96551,1.29809 1.46289,1.9668 7.81581,10.52475 14.52778,21.38669 20.53711,33.0332 0.41491,0.79326 0.82983,1.58651 1.25732,2.40381 11.05009,21.33121 18.14301,44.06217 22.74268,67.59619 0.23332,1.1666 0.46664,2.3332 0.70703,3.53516 9.31325,50.85439 0.36252,108.19681 -28.93848,151.17529 -18.34603,26.26723 -44.4407,48.11058 -73.76855,61.28955 -0.99,0 -1.98,0 -3,0 0.35916,0.64469 0.71833,1.28938 1.08838,1.95361 10.51704,19.05557 21.86738,39.7038 26.91162,61.04639 2.81199,0.48232 5.62453,0.96091 8.4375,1.4375 0.7831,0.13471 1.56621,0.26941 2.37304,0.4082 5.38474,0.90854 10.7572,1.59422 16.18946,2.1543 0.20754,-0.86496 0.41508,-1.72992 0.6289,-2.62109 4.22529,-17.27241 9.20454,-34.34249 14.10328,-51.43335 3.70352,-12.93488 7.30387,-25.89906 10.91625,-38.85962 2.51666,-9.01933 5.04431,-18.03505 7.62891,-27.03516 4.23436,-14.74647 8.42294,-29.50243 12.47266,-44.30078 5.23395,-19.12054 10.53778,-38.22149 15.85339,-57.31946 0.95657,-3.43676 1.91254,-6.87369 2.86792,-10.31079 2.93724,-10.56582 5.8858,-21.12841 8.84715,-31.68751 0.69592,-2.48356 1.39011,-4.9676 2.08406,-7.45171 1.14097,-4.08181 2.28862,-8.16169 3.44107,-12.24027 0.42968,-1.5241 0.85732,-3.04878 1.28277,-4.57407 0.58684,-2.10223 1.18131,-4.20215 1.77769,-6.30169 0.33362,-1.18547 0.66724,-2.37094 1.01097,-3.59233 1.67691,-5.05738 3.44208,-9.2149 7.64748,-12.58467 0.59941,-0.49113 1.19883,-0.98227 1.8164,-1.48828 4.59928,-3.40236 10.13333,-2.58668 15.6211,-2.19922 6.01333,1.39615 11.03858,5.31802 14.64119,10.24411 5.27026,10.68895 -0.1383,24.70391 -3.49666,35.24808 -0.50555,1.6412 -1.0092,3.28299 -1.51106,4.92532 -1.31626,4.28996 -2.65715,8.57181 -4.00396,12.85227 -1.35263,4.31313 -2.68282,8.63317 -4.01428,12.95288 -1.50682,4.88515 -3.01551,9.76961 -4.54204,14.64865 -2.74389,8.77371 -5.40464,17.56686 -7.98129,26.39117 -1.27272,4.35644 -2.57158,8.7045 -3.88097,13.05002 -0.50954,1.69528 -1.01898,3.39059 -1.52832,5.08594 -0.26913,0.89557 -0.53826,1.79115 -0.81555,2.71386 -2.72277,9.068 -5.43358,18.13957 -8.14343,27.21143 -0.7282,2.43672 -1.45703,4.87324 -2.18652,7.30957 -4.34186,14.5022 -8.60277,29.02322 -12.74143,43.58476 -2.45959,8.64228 -5.00369,17.255 -7.61511,25.85244 -6.17978,20.35801 -12.10844,40.78822 -18.0126,61.2276 -0.33615,1.16111 -0.6723,2.32223 -1.01863,3.51854 -0.63603,2.19707 -1.27045,4.39461 -1.90305,6.59268 -0.28197,0.97336 -0.56394,1.94671 -0.85445,2.94957 -0.24582,0.85198 -0.49164,1.70396 -0.74492,2.58175 -0.64692,2.05936 -0.64692,2.05936 -1.64692,4.05936 -0.78829,4.50448 0.38637,6.92179 2.75,10.625 8.15395,13.0811 8.93099,27.0192 6.70703,42.04297 -0.6689,2.85667 -1.4815,5.5666 -2.45703,8.33203 -0.25524,0.81984 -0.51047,1.63969 -0.77344,2.48437 -5.22293,15.04587 -16.07342,26.15054 -29.94141,33.48438 -2.28515,1.03125 -2.28515,1.03125 -4.28515,1.03125 -0.32328,1.34203 -0.32328,1.34203 -0.65308,2.71118 -2.92524,11.99325 -6.27629,23.85554 -9.65942,35.72632 -0.87967,3.09669 -1.75853,6.19361 -2.63736,9.29054 -0.57358,2.02095 -1.14745,4.04182 -1.72162,6.06259 -1.77699,6.2557 -3.53879,12.51523 -5.28116,18.78066 -1.04609,3.76029 -2.10266,7.51759 -3.16113,11.27441 -0.66302,2.35983 -1.32258,4.72051 -1.97949,7.08203 -0.9899,3.55515 -1.99163,7.1068 -2.99988,10.65677 -0.39072,1.38247 -0.7778,2.76598 -1.16089,4.15058 -0.53421,1.92835 -1.08321,3.85258 -1.63269,5.77664 -0.31155,1.10819 -0.6231,2.21638 -0.94409,3.35815 -1.62209,4.34261 -3.79384,7.87981 -7.23169,11.00513 -5.2927,2.02699 -10.95576,2.28402 -16.28907,0.21094 -4.40131,-2.55507 -7.51893,-5.38328 -9.64843,-10.08594 -1.53148,-8.48693 1.59474,-16.94668 4,-25 -0.41903,0.37657 -0.83805,0.75313 -1.26978,1.14111 -4.17055,3.67166 -8.43864,6.82401 -13.16772,9.73389 -0.69175,0.42708 -1.38349,0.85417 -2.09619,1.29419 -17.04862,10.36073 -35.86236,18.81044 -55.46631,22.83081 -1.07822,0.2243 -1.07822,0.2243 -2.17822,0.45312 -34.6024,6.78737 -76.26311,4.5345 -109.646,-6.70312 -7.1607,-1.69109 -13.83274,0.92808 -20.61328,3.125 -9.09797,2.8373 -18.10816,4.87761 -27.5625,6.125 -0.66427,0.095 -1.32854,0.18998 -2.01294,0.28784 -8.36673,1.02904 -16.79892,0.89822 -25.21485,0.89746 -2.67228,0.002 -5.34414,0.0203 -8.01635,0.0393 -16.15996,0.0548 -31.9724,-1.1658 -47.75586,-4.78711 -1.12737,-0.25612 -2.25473,-0.51224 -3.41626,-0.77612 -19.95891,-4.71776 -39.20728,-11.56926 -57.58374,-20.66138 -0.8951,-0.44134 -1.79019,-0.88269 -2.7124,-1.3374 -23.14102,-11.51602 -23.14102,-11.51602 -31.2876,-19.6626 0.17221,-3.01397 0.55871,-4.53554 2.65478,-6.7417 0.70431,-0.51579 1.40863,-1.03157 2.13428,-1.56299 0.7773,-0.58394 1.55461,-1.16789 2.35547,-1.76953 0.81855,-0.59426 1.63711,-1.18851 2.48047,-1.80078 39.01761,-28.77312 54.14017,-75.35296 63.58952,-120.86899 9.39986,-45.2583 22.18051,-87.99423 48.78548,-126.25601 -3.6603,-3.02331 -7.7319,-4.98722 -11.9375,-7.125 -35.59411,-18.50741 -62.65233,-49.5164 -74.8374,-87.88696 -9.50419,-32.05086 -7.21815,-64.38055 -2.2251,-96.98804 -0.94517,3.51882 -1.88056,7.04016 -2.8125,10.5625 -0.27771,1.04454 -0.55543,2.08909 -0.84156,3.16528 -1.85956,7.10091 -3.35158,14.14802 -4.41235,21.40894 -1.47301,4.51766 -4.4177,6.06471 -8.48437,8.20703 -17.68631,7.40473 -41.76925,13.97563 -60.76172,8.46875 -3.70874,-1.56687 -5.87141,-3.10135 -7.6875,-6.8125 -1.43293,-8.78202 1.95773,-16.50704 5.125,-24.5 0.54619,-1.40942 1.0915,-2.81917 1.63598,-4.22925 1.43459,-3.69657 2.89419,-7.38271 4.36225,-11.0661 0.85407,-2.14757 1.70073,-4.29792 2.54522,-6.44928 11.0263,-28.02999 23.08045,-56.30707 39.33155,-81.75537 0.7274,-1.17005 1.45396,-2.34062 2.17969,-3.51172 11.95617,-19.11548 25.557,-36.89896 40.82031,-53.48828 1.52165,-1.7076 3.04247,-3.41594 4.5625,-5.125 6.41222,-7.11355 13.15641,-13.66065 20.4375,-19.875 0.91136,-0.80051 1.82273,-1.60102 2.76172,-2.42578 19.34418,-16.86623 40.97896,-30.74726 64.23828,-41.57422 1.05187,-0.49629 2.10375,-0.99258 3.1875,-1.50391 35.22585,-15.84298 72.30023,-22.37601 110.66406,-23.62108 z"
           fill="#1e2338"
           id="path2" /><path
           d="m -412.88919,309.81995 c 0.66048,0.20867 1.32097,0.41733 2.00146,0.63232 30.13389,9.81049 57.95113,26.75864 80.99854,48.36768 0.74854,0.69754 0.74854,0.69754 1.51221,1.40918 22.13017,20.7875 37.25342,47.12352 44.48779,76.59082 0.16516,0.65001 0.33032,1.30002 0.50049,1.96973 7.65418,31.51908 4.27334,71.29341 -12.17627,99.4873 -6.33071,10.0765 -14.81432,17.97629 -25.32422,23.54297 -0.59684,0.32694 -1.19367,0.65388 -1.80859,0.99072 -4.78495,2.53231 -9.40716,4.12034 -14.69141,5.25928 -0.76812,0.16983 -1.53624,0.33967 -2.32764,0.51465 -7.7471,1.57767 -15.30516,1.62121 -23.17236,1.23535 -0.14695,1.34191 -0.14695,1.34191 -0.29687,2.71094 -2.2953,18.56024 -2.2953,18.56024 -9.07813,24.78906 -6.37623,4.762 -12.8642,5.21924 -20.625,4.5 -6.48722,-2.08081 -10.26613,-6.87813 -13.48828,-12.67969 -1.21758,-2.42143 -2.38988,-4.85326 -3.51172,-7.32031 -0.31453,0.79664 -0.62906,1.59328 -0.95312,2.41406 -3.7597,9.30864 -6.76057,16.03347 -16.04688,20.58594 -6.14895,1.86368 -11.27603,1.62583 -17.125,-0.9375 -8.58381,-4.68686 -11.74011,-13.22949 -14.875,-22.0625 -0.21914,0.55687 -0.43828,1.11375 -0.66406,1.6875 -3.37634,8.12518 -7.55972,15.39006 -15.63672,19.47656 -8.22565,2.54746 -17.99139,1.65099 -25.6875,-2.05078 -6.95488,-3.84882 -9.54416,-8.64757 -12.01172,-16.11328 -0.9192,-4.6481 -1.5389,-9.28573 -2,-14 -0.58121,0.0693 -1.16241,0.13857 -1.76123,0.20996 -25.22749,2.79037 -50.94632,2.03936 -71.78174,-14.15918 -18.34438,-15.31129 -26.81159,-38.10584 -29.10937,-61.44531 -1.06101,-12.6479 -0.72923,-25.12277 1.65234,-37.60547 0.11827,-0.66258 0.23654,-1.32516 0.3584,-2.00781 7.98313,-44.03925 35.97454,-80.93964 71.6416,-106.99219 1.15105,-0.85806 2.30209,-1.71614 3.45312,-2.57422 35.83392,-26.41745 82.77231,-50.66392 127.54688,-36.42578 z"
           fill="#374562"
           id="path4" /><path
           d="m -170.88919,411.81995 c 20.53683,12.87627 39.01805,30.00773 54,49 0.74508,0.93973 1.49016,1.87945 2.25781,2.84766 24.879084,32.2041 37.259963,71.5043 37.05469,112.02734 -0.0028,0.80825 -0.0056,1.6165 -0.0085,2.44925 -0.103217,19.80371 -2.15663,38.42948 -7.178955,57.61325 -0.327422,1.25095 -0.654844,2.50191 -0.992188,3.79077 -1.997889,7.21536 -4.470237,13.73538 -8.132857,20.27173 -0.33,0 -0.66,0 -1,0 -0.172734,-0.95133 -0.345469,-1.90266 -0.523438,-2.88281 -4.389654,-22.45192 -12.294232,-44.65846 -22.476562,-65.11719 -0.3321,-0.67515 -0.66419,-1.35029 -1.00635,-2.0459 -11.7815,-23.72704 -28.796,-46.21037 -49.93115,-62.3291 -0.73001,-0.558 -1.46002,-1.11601 -2.21216,-1.69092 -9.02334,-6.74981 -18.76759,-11.94691 -28.85034,-16.93408 0.7536,-5.5924 2.31568,-10.86237 3.91406,-16.25781 0.30451,-1.03545 0.60902,-2.0709 0.92276,-3.13773 3.95787,-13.38969 8.06781,-26.73361 12.18125,-40.07614 1.14894,-3.72681 2.29462,-7.45463 3.43946,-11.18271 0.89089,-2.89991 1.78345,-5.79931 2.67652,-8.69855 0.42395,-1.37698 0.84737,-2.75412 1.27026,-4.13143 0.58407,-1.9014 1.17063,-3.80204 1.75731,-5.70264 0.33196,-1.07789 0.66393,-2.15578 1.00595,-3.26633 0.83243,-2.54666 0.83243,-2.54666 1.83243,-4.54666 z"
           fill="#5c708c"
           id="path9" /><path
           d="m -486.51028,428.53089 c 12.64485,10.42375 21.07936,26.43961 23.37109,42.625 1.19075,12.68886 -0.23175,25.13993 -8.07422,35.64844 -0.553,0.66515 -1.10601,1.33031 -1.67578,2.01562 -0.56332,0.68578 -1.12664,1.37156 -1.70703,2.07813 -8.61071,9.49898 -21.13772,15.36276 -33.90039,16.06543 -18.13083,0.61491 -36.25142,-0.25499 -50.39258,-13.14356 -11.0242,-11.5253 -11.63718,-24.46597 -11.3789,-39.66015 0.70144,-16.9377 8.70401,-32.23185 20.3789,-44.33985 19.21908,-16.28786 43.3043,-15.72696 63.37891,-1.28906 z"
           fill="#20253b"
           id="path11" /><path
           d="m -332.01028,426.08167 c 12.36087,10.13 18.37349,24.11904 20.12109,39.73828 1.28569,14.94607 -0.22227,31.95366 -10,44 -9.04113,10.0744 -22.22246,14.07204 -35.375,15.32031 -15.34147,0.52301 -29.52855,-3.57154 -40.9375,-14.07031 -9.13643,-9.6717 -11.25307,-21.29665 -10.9414,-34.14062 0.77325,-16.64624 9.04869,-34.71151 21.2539,-46.10938 17.04514,-14.09203 36.90045,-18.37164 55.87891,-4.73828 z"
           fill="#20253b"
           id="path12" /><path
           d="m -393.88919,641.81995 c 8.5675,8.71271 8.375,22.74431 8.375,34.1875 -0.15093,13.27268 -0.36792,29.08299 -7.56641,40.74219 -3.04906,1.80441 -5.46507,0.85081 -8.80859,0.0703 -10.66344,-4.16071 -23.76146,-11.11096 -31.51489,-19.67285 -0.49009,-0.43796 -0.98017,-0.87592 -1.48511,-1.32715 -2.34485,0.23927 -4.6781,0.59459 -7,1 -9.2011,0.39945 -9.2011,0.39945 -12,-1 -0.24234,0.58266 -0.48469,1.16531 -0.73437,1.76562 -4.91255,8.67278 -16.69381,13.69693 -25.26563,18.23438 -0.99773,0.53238 -1.99547,1.06477 -3.02344,1.61328 -4.87906,2.42586 -9.50085,4.42659 -15.03906,4.05078 -3.26031,-1.11744 -4.41261,-3.19884 -5.94531,-6.17969 -4.54709,-11.38562 -5.19263,-22.4236 -5.24219,-34.54687 -0.0206,-1.23428 -0.0413,-2.46856 -0.0625,-3.74023 -0.0435,-10.39615 0.0608,-23.00984 7.3125,-31.19727 4.23694,-2.11847 9.45927,-0.50199 13.76953,0.90234 11.39257,4.52958 21.99109,10.42412 31.04688,18.72657 2.10181,1.63656 2.10181,1.63656 4.61328,1.09375 0.8482,-0.23848 1.6964,-0.47696 2.57031,-0.72266 1.85248,-0.0893 3.70787,-0.13016 5.5625,-0.125 1.39412,-0.004 1.39412,-0.004 2.81641,-0.008 2.36257,0.1197 4.3614,0.46287 6.62109,1.1328 0.1998,-0.55172 0.39961,-1.10344 0.60547,-1.67188 1.95702,-3.26717 4.72711,-5.29607 7.70703,-7.57812 0.928,-0.71918 0.928,-0.71918 1.87476,-1.45288 20.48204,-15.61194 20.48204,-15.61194 30.81274,-14.29712 z"
           fill="#d66165"
           id="path13" /><path
           d="m -433.88919,499.81995 c 2.38795,0.37248 3.69765,0.69515 5.42188,2.43359 3.54868,5.35435 6.33917,10.99027 9.01562,16.81641 0.36642,0.78045 0.73283,1.56089 1.11035,2.36499 1.45658,3.27942 2.45868,5.68759 2.42481,9.30689 -1.26298,2.69841 -2.21642,3.0176 -4.97266,4.07812 -2.70142,0.24292 -2.70142,0.24292 -5.75391,0.23047 -1.1015,-0.002 -2.203,-0.004 -3.33789,-0.006 -1.71799,-0.0183 -1.71799,-0.0183 -3.4707,-0.0371 -1.1492,-6.5e-4 -2.2984,-0.001 -3.48242,-0.002 -8.53341,-0.0449 -8.53341,-0.0449 -11.95508,-1.1855 0.42761,-7.1054 2.10323,-12.33795 5.25,-18.6875 0.38285,-0.81533 0.7657,-1.63066 1.16016,-2.4707 2.36082,-4.88352 4.93587,-8.8315 8.58984,-12.8418 z"
           fill="#1d2237"
           id="path15" /></g><text
         xml:space="preserve"
         style="font-size:38.4354px;line-height:0.85;font-family:Aquire;-inkscape-font-specification:Aquire;stroke-width:0.221742"
         x="168.4471"
         y="81.252304"
         id="text4"
         inkscape:export-filename="onedark-social-preview-1280x640.png"
         inkscape:export-xdpi="96"
         inkscape:export-ydpi="96"><tspan
           sodipodi:role="line"
           style="font-style:normal;font-variant:normal;font-weight:normal;font-stretch:normal;font-size:38.4354px;line-height:0.85;font-family:sans-serif;-inkscape-font-specification:sans-serif;fill:#ffffff;stroke-width:0.221742"
           x="168.4471"
           y="81.252304"
           id="tspan5"><tspan
   id="tspan6"
   style="font-style:normal;font-variant:normal;font-weight:bold;font-stretch:normal;font-size:38.4354px;line-height:0.85;font-family:sans-serif;-inkscape-font-specification:sans-serif;fill:#ffffff;stroke-width:0.221742">onedark</tspan></tspan><tspan
           sodipodi:role="line"
           style="font-style:normal;font-variant:normal;font-weight:normal;font-stretch:normal;font-size:38.4354px;line-height:0.85;font-family:sans-serif;-inkscape-font-specification:sans-serif;fill:#ffffff;stroke-width:0.221742"
           x="168.4471"
           y="116.90759"
           id="tspan7">theme</tspan></text></g></g></svg>
