<?xml version="1.0" encoding="UTF-8" standalone="no"?>
<svg
   version="1.1"
   width="1830"
   height="28"
   id="svg15"
   sodipodi:docname="dark.svg"
   inkscape:version="1.3.2 (091e20e, 2023-11-25, custom)"
   inkscape:export-filename="dark.png"
   inkscape:export-xdpi="259.43607"
   inkscape:export-ydpi="259.43607"
   xmlns:inkscape="http://www.inkscape.org/namespaces/inkscape"
   xmlns:sodipodi="http://sodipodi.sourceforge.net/DTD/sodipodi-0.dtd"
   xmlns="http://www.w3.org/2000/svg"
   xmlns:svg="http://www.w3.org/2000/svg">
  <defs
     id="defs15" />
  <sodipodi:namedview
     id="namedview15"
     pagecolor="#ffffff"
     bordercolor="#666666"
     borderopacity="1.0"
     inkscape:showpageshadow="2"
     inkscape:pageopacity="0.0"
     inkscape:pagecheckerboard="0"
     inkscape:deskcolor="#d1d1d1"
     inkscape:zoom="0.40880818"
     inkscape:cx="1032.269"
     inkscape:cy="177.34479"
     inkscape:window-width="1920"
     inkscape:window-height="1017"
     inkscape:window-x="-8"
     inkscape:window-y="472"
     inkscape:window-maximized="1"
     inkscape:current-layer="svg15" />
  <g
     id="g25"
     transform="matrix(1.5,0,0,1,0,-62.376442)">
    <path
       d="m 0,62.376442 c 40.26,0 80.52,0 122,0 0,9.24 0,18.48 0,28 -40.26,0 -80.52,0 -122,0 0,-9.24 0,-18.48 0,-28 z"
       fill="#f4dbd6"
       id="path16"
       style="fill:#e86671;fill-opacity:1" />
    <path
       d="m 122,62.376442 c 40.26,0 80.52,0 122,0 0,9.24 0,18.48 0,28 -40.26,0 -80.52,0 -122,0 0,-9.24 0,-18.48 0,-28 z"
       fill="#f4dbd6"
       id="path17"
       style="fill:#d19a66;fill-opacity:1" />
    <path
       d="m 244,62.376442 c 40.26,0 80.52,0 122,0 0,9.24 0,18.48 0,28 -40.26,0 -80.52,0 -122,0 0,-9.24 0,-18.48 0,-28 z"
       fill="#f4dbd6"
       id="path18"
       style="fill:#e5c07b;fill-opacity:1" />
    <path
       d="m 366,62.376442 c 40.26,0 80.52,0 122,0 0,9.24 0,18.48 0,28 -40.26,0 -80.52,0 -122,0 0,-9.24 0,-18.48 0,-28 z"
       fill="#f4dbd6"
       id="path19"
       style="fill:#98c379;fill-opacity:1" />
    <path
       d="m 488,62.376442 c 40.26,0 80.52,0 122,0 0,9.24 0,18.48 0,28 -40.26,0 -80.52,0 -122,0 0,-9.24 0,-18.48 0,-28 z"
       fill="#f4dbd6"
       id="path20"
       style="fill:#56b6c2;fill-opacity:1" />
    <path
       d="m 610,62.376442 c 40.26,0 80.52,0 122,0 0,9.24 0,18.48 0,28 -40.26,0 -80.52,0 -122,0 0,-9.24 0,-18.48 0,-28 z"
       fill="#f4dbd6"
       id="path21"
       style="fill:#61afef;fill-opacity:1" />
    <path
       d="m 732,62.376442 c 40.26,0 80.52,0 122,0 0,9.24 0,18.48 0,28 -40.26,0 -80.52,0 -122,0 0,-9.24 0,-18.48 0,-28 z"
       fill="#f4dbd6"
       id="path22"
       style="fill:#c678dd;fill-opacity:1" />
    <path
       d="m 854,62.376442 c 40.26,0 80.52,0 122,0 0,9.24 0,18.48 0,28 -40.26,0 -80.52,0 -122,0 0,-9.24 0,-18.48 0,-28 z"
       fill="#f4dbd6"
       id="path23"
       style="fill:#993939;fill-opacity:1" />
    <path
       d="m 976,62.376442 c 40.26,0 80.52,0 122,0 0,9.24 0,18.48 0,28 -40.26,0 -80.52,0 -122,0 0,-9.24 0,-18.48 0,-28 z"
       fill="#f4dbd6"
       id="path24"
       style="fill:#93691d;fill-opacity:1" />
    <path
       d="m 1098,62.376442 c 40.26,0 80.52,0 122,0 0,9.24 0,18.48 0,28 -40.26,0 -80.52,0 -122,0 0,-9.24 0,-18.48 0,-28 z"
       fill="#f4dbd6"
       id="path25"
       style="fill:#8a3fa0;fill-opacity:1" />
  </g>
</svg>
